<?xml version="1.0" encoding="UTF-8"?>
<svg id="Capa_1" data-name="Capa 1" xmlns="http://www.w3.org/2000/svg" viewBox="0 0 432 273.26">
  <defs>
    <style>
      .cls-1 {
        fill: #231f20;
      }
    </style>
  </defs>
  <path class="cls-1" d="M239.5,186.44c-1.43,0-2.53,1.45-3.25,4.34-.44,1.84-.66,3.72-.66,5.57,0,.62.4,1.13.88,1.13,1.24,0,2.47-.95,3.76-2.91,1.25-1.9,1.86-3.56,1.86-5.06,0-1.92-.96-3.07-2.58-3.07Z"/>
  <path class="cls-1" d="M430.89,202.47c-.22-.47-1.55-3.23-3.81-5.66-.13-.12-.26-.22-.4-.34-.87-.86-1.85-1.75-3.01-2.65-1.07-.8-2.3-1.65-3.65-2.54-.26-.14-.58-.34-.97-.63-.2-.12-.4-.25-.61-.37h.02c-2.83-1.79-6.07-3.68-9.43-5.56-7.67-4.18-17.34-9.07-22.36-11.59-.86-.43-1.75-.86-2.64-1.31l-14.51-7.5c-24.98-12.59-63.78-31.89-111.52-54.74-5.98-2.74-11.47-5.26-16.3-7.5-7.69-3.86-13.44-6.83-16.46-8.53-1.51-.83-1.87-2.35-1.95-3.1,0-.14-.02-.28-.03-.44l-.02-.4c.01-.37.02-.69.02-1,.16-2.34,1.31-8.34,8.51-12.51.65-.38,1.28-.75,1.94-1.14,2.7-1.56,5.43-3.16,7.98-4.97,1.65-1.24,6.93-5.59,10.98-13.23.88-1.72,1.75-3.65,2.52-5.77.17-.5.35-.99.51-1.5.73-2.25,1.31-4.67,1.65-7.22h.01s.04-.27.09-.75c.01-.11.02-.22.03-.33.03-.28.05-.6.08-.97.14-1.82.17-3.69,0-5.61-.36-5.71-1.98-13.68-7.38-20.54h0s-.04-.04-.05-.06c-.22-.27-.44-.54-.67-.81-.19-.23-.38-.45-.57-.67,0,0-.01-.02-.02-.02-7.85-8.82-19.28-11.41-25.72-12.17-.08-.01-.17-.02-.25-.03-.71-.08-1.36-.14-1.93-.18-.2-.01-.4-.03-.6-.04-1.33-.08-2.11-.06-2.11-.06h0c-4.44.01-8.41.78-11.59,1.72-2.55.62-5.03,1.65-7.38,2.95-.37.2-.58.32-.58.32h0c-8.6,4.99-15.44,13.63-17.93,19.85-.26.73-.95,3-.14,4.63.81,1.32,2.34,2.13,4.26,2.13.96,0,1.98-.2,3.03-.59.51-.23,1.63-.94,3.31-3.16.01-.01.02-.02.03-.03,8.8-11.27,18.69-16.98,29.43-16.98,2.89,0,5.89.42,8.97,1.28,8.42,1.99,14.35,9.11,15.86,19.05,1.19,7.86-.56,17.5-6.47,24.61-.06.08-.12.17-.2.26-.2.23-.41.45-.62.67-.89.97-1.86,1.88-2.92,2.73-2.79,2.33-5.3,3.81-5.3,3.81h-.01c-.44.3-.88.61-1.33.89-.04.03-.07.05-.11.08-7.59,4.96-11.49,9.39-13.24,11.76-2.29,3.41-4.4,6.73-4.76,12.44-.37,3.42-1.77,4.85-2.59,5.41-5.4,2.89-17.91,8.66-33.7,15.89-47.74,22.85-86.54,42.15-111.52,54.74l-34.3,17.73h0c-2.29,1.3-4.37,2.43-6.31,3.48-6.08,3.29-10.88,5.88-17.04,11.34l-.12.12c-2.2,2.33-3.71,4.8-4.61,7.56,0,0-1.94,7.78,3.19,12.7,4.46,4.28,9.23,5.33,10.39,5.53.66.09,1.33.16,2.01.2,0,0,6.82.15,12.42-4.73,1.51-1.36,3.1-3.11,4.67-5.35,1.26.42,2.82.68,4.65.76-.22.94-.32,3.53-.32,4.63,0,3.82,1.28,8.36,7.36,8.36,1.98,0,4.29-.43,6.89-1.28h0s.05-.01.12-.04c.05-.02.09-.03.14-.04.13-.05.26-.1.39-.15,1.63-.58,6.09-2.1,10.01-2.91,0,0,0,0,0,0l5.33-1.1c2.31,3.92,6.28,5.91,11.83,5.91,1.45,0,3.92-.39,7.39-1.15h0s4.87-.59,10.84-3.14c.68-.26,1.32-.52,1.84-.76,2.2-1.07,4.84-2.53,6.82-4.19,1.33-1,2.63-2.12,3.86-3.38.64-.55,1.32-1.03,1.94-1.41.02-.01.05-.03.07-.04.02-.01.04-.02.06-.03.08-.04.17-.09.26-.13.1-.04.36-.13.64-.05.16.05.22.22.24.38,0,.05.01.1.01.14,0,.03,0,.06,0,.09,0,.17-.03.3-.03.3h0c-.55,2.61-1.47,7.15-1.55,7.62,0,0,0,0,0,.01,0,.02,0,.03,0,.04-.03.2-.06.37-.08.49,0,0-.79,3.94,3.67,2.88,3.14-.75,7.37-2.8,9.62-3.96l.09-.04h0s.29-.15.29-.15c.73-.38,1.18-.63,1.18-.63l16.18-8.61c.36-.19,1.56-.74,2.36-.22.95.61.72,2.67.72,2.67h0c-.19,1.74-.4,3.74-.53,5.54-.04.79.03,3.83,3.1,4.45,2.22.45,6.2.25,8.87.04.1-.01,2.09-.23,4.67-.95.05-.01.24-.08.54-.18,0,0,0,0,0,0,.94-.33,2.93-1.06,5.13-2.12,6.73-3.48,12.95-8.9,18.56-16.25-.1,1.1-.16,2.18-.16,3.23,0,14.27,8.32,17.26,15.29,17.26,3.12,0,7.08-.72,11.76-2.13l7.3-2.72c2.98-1.08,5.57-2.04,7.73-2.88-.12.35-.27.75-.43,1.2-.89,2.64-1,3.52-1,4.04,0,1.51.56,4.05,4.29,4.05,1.04,0,2.24-.11,3.54-.28h.01s3.26-.39,7.07-1.22c1.01-.25,2.34-.63,3.92-1.17h0c.13-.04.26-.09.39-.14.09-.03.17-.06.26-.09.39-.14.8-.3,1.22-.46.03-.01.07-.03.1-.04.95-.38,1.96-.81,3.04-1.3.1-.05.2-.1.3-.14.4-.19.8-.38,1.21-.59.09-.04.17-.08.26-.13,0,0,0,0,0,0,1.22-.62,2.49-1.3,3.81-2.09l7.15-4.53c-.85,1.77-1.26,3.15-1.26,4.26,0,2.53.91,4.6,2.7,6.15,1.46,1.27,3.17,1.92,5.08,1.92,2.21,0,5.09-.98,8.76-2.99l-15.57,33.6c-1.47,2.78-2.55,5.34-3.18,7.61-.55,1.93-.72,3.69-.52,5.29.15,1.03.61,2.6,1.98,2.97,1.29.35,2.46-.22,3.17-.7,1.84-1.4,3.86-3.88,6.12-7.51l4.18-6.71c.08-.13,13.2-21.17,35.06-36.1,1.96-1.23,3.97-2.45,5.99-3.63,0,0,2.28-1.41,4.81-2.79,1.53-.77,3.07-1.51,4.66-2.2,1.37-.48,2.27-.53,2.1.31h0s0,0,0,0c-.55,2.61-1.47,7.15-1.55,7.62,0,0,0,0,0,.01,0,.02,0,.03,0,.04-.03.2-.06.37-.08.49,0,0-.79,3.94,3.67,2.88,3.14-.75,7.37-2.8,9.62-3.96l.09-.04h0s.29-.15.29-.15c.73-.38,1.18-.63,1.18-.63l16.18-8.61c.36-.19,1.56-.74,2.36-.22.95.61.72,2.67.72,2.67h0c-.19,1.74-.4,3.74-.53,5.54-.04.79.03,3.83,3.1,4.45,2.22.45,6.2.25,8.87.04.07,0,1.21-.14,2.87-.5l2.01-.35,8.89-1.83c2.31,3.92,6.28,5.91,11.83,5.91,0,0,7.68.63,22.85-5.15,1.22-.41,2.57-.93,3.91-1.56,0,0,0,0,.02,0h0c.26-.12.51-.26.76-.39,2.56-1.42,10.52-6.86,6.51-17.61ZM424.37,211.32h0s-.04.07-.11.17c0,.01-.02.03-.03.04-.09.13-.23.33-.43.58-.07.09-.12.17-.19.25-.09.12-.2.24-.3.36-.3.32-.6.61-.91.89-1.72,1.61-4.72,3.74-9.58,5.23l-3.86.97c-4.53.99-8.29,1.5-11.2,1.5-2.15,0-5.53-.26-6.5-1.81,2.33-.68,4.68-1.32,7.01-1.94l.59-.2h0c.3-.1.7-.25,1.11-.42,3.94-1.82,5.96-4.35,5.96-7.55,0-2.62-1.12-5.75-6.44-5.75-3.51,0-6.68,1.03-9.41,3.05-3.04,2.21-5.03,5.25-5.95,9.06l-6.77,1.97-2,.5c-1.58.36-4,.85-5.38.85-.02,0-.03,0-.05,0-1.37.08-2.55,0-3.34-.18-2.04-.48-2.12-2.04-2.09-2.59,0-.07.01-.15.02-.21.02-.13.03-.27.05-.41,0,0,0,0,0,0h0c.17-1.39.4-3.34.49-4.65.1-1.65.14-3.11.16-3.95,0-.54-.03-1.34-.2-1.92-.08-.21-.17-.41-.3-.59-.03-.03-.05-.06-.06-.08-.39-.5-.99-.84-1.88-.84-1.38,0-2.89.47-4.85,1.18-8.69,3.54-17.84,9.04-20.82,10.88-.29.19-.57.36-.85.53-.1.06-.16.1-.16.1h0c-.78.47-1.52.86-2.18,1.14-.04.01-.11.04-.2.06-.01,0-.42.08-.76-.11-.3-.17-.08-.88-.02-1.07,0-.02.01-.03.02-.05.75-2.06,1.76-9.3,1.76-9.67,0-1.88-.69-2.77-1.47-3.04,0,0,0-.01-.02-.02-.24-.1-.61-.11-.73-.11,0,0-.01,0-.02,0,0,0-.03,0-.03,0h0c-.93,0-4.89.87-19.31,10.8h.02c-25.13,15.84-37.32,34.32-37.86,35.16l-1.88,2.73h0s-3.24,4.65-3.24,4.65h0s-.31.43-.31.43c-.16.18-.36.32-.54.23-.37-.19.19-1.35.2-1.38l16.47-34.64c.06-.11.1-.22.13-.34.18-.36.76-1.43,2.56-4.58.83-1.46,1.24-2.77,1.24-4.02,0-.26-.06-.51-.17-.73-.33-.62-.85-.96-1.46-.96-.69,0-1.34.39-1.91,1.13-1.63,1.92-3.91,3.88-6.74,5.82-3.19,2.08-5.69,3.13-7.42,3.13-2.98,0-2.98-1.38-2.98-1.97,0-.3.05-.64.14-.99.78-2.69,2.87-5,6.19-6.84,3-1.58,5.94-2.39,8.73-2.39.65,0,1.68.25,3.05.74,1.57.56,2.72.83,3.5.83,2.13,0,2.45-1.3,2.45-2.08,0-.82-.53-1.28-.76-1.47-.03-.03-.07-.06-.1-.08-3.07-2-5.88-3.02-8.35-3.02-8.28,0-17.67,4.44-17.67,4.44-3.14,1.36-6.23,3.21-8.29,4.53h0s-.05.03-.08.05c-.4.26-.78.5-1.09.71h0s-.03.02-.04.03c-.24.16-.43.29-.61.41-6.4,4.09-11.03,5.46-12.84,5.88-.28.06-.56.11-.85.17-3.13.7-4.82.77-4.82.77-.44.06-.94.11-1.45.16-1.46.09-3.03,0-3.09-.81-.08-1.14.74-2.7,1.18-3.44,0,0,3.28-6.68,2.74-11.18-.03-.13-.07-.29-.13-.45-.02-.04-.03-.07-.05-.11-.05-.12-.12-.24-.2-.36-.36-.49-.88-.78-1.54-.78-1.38,0-3.7,4.11-7.25,7.25h0c-.88.83-1.93,1.56-2.99,2.18h0c-1.86,1.16-4.64,2.29-7.07,3.16l-5.14,1.64c-.17.05-.32.1-.46.14-3.54,1.06-6.78,1.6-9.61,1.6s-5.41-.82-7.41-2.44c-2.35-1.87-3.49-4.4-3.49-7.72s1.43-8.09,4.26-14.09c.79-1.69,3.02-5.95,6.63-12.67h8.99c.46,0,2.14-.11,2.14-2.82,0-2.31-1.68-2.51-2.17-2.52h-5.84c1.94-3.13,3.62-5.93,5.03-8.4h0s1.23-1.96,2.23-3.98l.81-1.85c.34-.9.53-1.69.39-2.15-.37-1.22-1.31-1.68-1.82-1.85-.08-.04-.17-.06-.26-.07-.06-.01-.1-.02-.1-.02-.31-.05-.59-.06-.83-.07-1.06-.02-1.9.6-2.13.8-1.12.95-2.91,3.06-5.99,8.16-2.41,4.11-4.27,7.26-5.56,9.43h-15.04c-2.7,0-2.68,2.72-2.68,2.72,0,2.33,1.82,2.6,2.52,2.62h12.43c-4.55,8.31-9.08,15.09-13.49,20.19-4.06,4.69-8.68,8.73-13.79,12.04,0,0,0,0,0,0-1.11.72-2.26,1.4-3.42,2.05-.12.06-.23.12-.35.18-4.15,1.98-8.98,2.24-11.13,1.74-2.04-.48-2.12-2.04-2.09-2.59,0-.07.01-.15.02-.21.02-.13.03-.27.05-.41,0,0,0,0,0,0h0c.17-1.39.4-3.34.49-4.65.1-1.65.14-3.11.16-3.95,0-.54-.03-1.34-.2-1.92-.08-.21-.17-.41-.3-.59-.03-.03-.05-.06-.06-.08-.39-.5-.99-.84-1.88-.84-1.38,0-2.89.47-4.85,1.18-8.69,3.54-17.84,9.04-20.82,10.88-.29.19-.57.36-.85.53-.1.06-.16.1-.16.1h0c-.78.47-1.52.86-2.18,1.14-.16.06-.67.22-1.03.14-.26-.06-.18-.52-.07-.88.05-.14.09-.26.15-.43.75-2.06,1.76-9.3,1.76-9.67,0-2.32-1.04-3.14-2.02-3.14-.29,0-.6.07-.93.2l-4.34,3.16h0s0,0,0,0l-7.09,5.16c-9.92,6.47-17.59,8.34-20.77,8.86-1.99.28-3.76.43-5.29.43-2.15,0-5.53-.26-6.5-1.81,2.03-.6,4.08-1.15,6.12-1.7l.92-.3h0c.97-.32,2.54-.92,3.94-1.82,2.45-1.67,3.7-3.78,3.7-6.3s-1.12-5.75-6.44-5.75c-3.51,0-6.68,1.03-9.41,3.05-3.04,2.21-5.03,5.25-5.95,9.06l-8.09,2.35s0,0,0,0l-6.03,1.74c-.08.02-.16.05-.23.07l-.16.05h0c-2.59.72-4.56,1.09-5.86,1.09-3.08,0-3.08-1.29-3.08-1.71,0-.79.49-4.39,3.74-9.08.24-.35.32-.83.2-1.27-.11-.51-.37-.83-.61-1.04-.16-.14-.31-.22-.4-.26-.65-.21-1.4-.1-1.67-.04-.63.17-1.42.44-2.42.83-1.36.53-2.42.79-3.14.79-1.89,0-2.83-.27-3.29-.5.21-.85.31-1.55.31-2.13,0-1.85-.86-3-2.24-3s-3,1.03-3.15,5.79c-1.73,2.15-3.44,3.67-5.01,4.75-.51.32-9.87,6.12-16.73-1.35-5.94-6.46,2.29-12.25,5.04-13.91,3.64-2.09,8.57-4.66,14.48-7.74,5.41-2.82,11.62-6.06,18.18-9.64,60.07-31.28,126.9-60.82,154.12-72.6,4.66-2.04,8.86-3.15,12.53-3.68,1.55-.19,4.63-.38,8.33.3,3.04.63,6.37,1.64,10,3.23,13.25,5.74,35.89,15.68,62.56,27.98.37.18.73.35,1.1.53,11,5.15,46.26,21.74,73.38,35.33,5.72,2.89,11.43,5.82,17.07,8.76,2.39,1.31,4.74,2.56,7.01,3.78,0,0,.01,0,.02,0,0,0,.01,0,.02,0,3.96,2.1,7.71,4.06,11.13,5.85,5.9,3.08,10.84,5.65,14.48,7.74,1.74,1.05,5.65,3.75,6.81,7.22.51,1.61.42,3.41-.76,5.32ZM389.48,215.68c0-1.74,1.17-3.49,3.51-5.23,1.32-1.03,2.52-1.74,3.57-2.13.06-.02,1.47-.43,2.96-.3,1.28.13,1.93.5,1.93,1.12,0,1.66-1.72,3.23-5.16,4.71-2.89,1.22-5.16,1.83-6.82,1.83ZM72.08,215.68c0-1.74,1.17-3.49,3.51-5.23,2.13-1.66,3.92-2.49,5.37-2.49,2.06,0,3.1.39,3.1,1.18,0,1.66-1.72,3.23-5.16,4.71-2.89,1.22-5.16,1.83-6.82,1.83Z"/>
</svg>