<?xml version="1.0" encoding="UTF-8"?>
<svg id="Capa_1" data-name="Capa 1" xmlns="http://www.w3.org/2000/svg" viewBox="0 0 51.62 51.9">
  <path d="M49.65,6.16l-4.19-4.19c-1.27-1.27-2.96-1.97-4.76-1.97s-3.49.7-4.76,1.97L6.39,31.53c-.45.35-.79.81-.97,1.33L.16,48.05c-.37,1.06-.08,2.24.71,3.02.54.53,1.26.83,2.03.83.34,0,.69-.06,1.01-.18l14.94-5.58c.25-.1.45-.21.72-.42.09-.07.18-.14.27-.23l29.81-29.81c2.62-2.62,2.62-6.9,0-9.52ZM36.07,9.08l3.73-3.73c.21-.21.5-.33.8-.33s.59.12.8.33l4.86,4.86c.21.21.33.5.33.8s-.12.59-.33.8l-3.73,3.74-6.47-6.47ZM13.2,43.58l-7.71,2.88,2.73-7.86,4.98,4.98ZM11.3,34.37l21.99-21.99,5.94,5.94-21.99,21.99-5.95-5.94Z"/>
</svg>
